<?xml version="1.0" encoding="utf-8"?>
<svg enable-background="new 0 0 1024 1008" id="Layer_1" version="1.1" viewBox="0 0 1024 1008" width="100%" x="0px" xml:space="preserve" xmlns="http://www.w3.org/2000/svg" xmlns:xlink="http://www.w3.org/1999/xlink" y="0px"><rect fill="white" height="100%" width="100%"/>
<path d=" M548.347534,431.737762   C566.310303,432.190033 583.708496,431.975647 601.144287,429.477997   C612.732788,427.817963 623.954834,431.672302 634.382935,436.820343   C644.905457,442.015045 655.912964,444.661652 667.595459,444.830505   C669.526794,444.858429 671.656372,444.493713 673.676697,446.866974   C669.306519,451.502228 664.238708,454.694336 657.747986,455.155273   C649.749329,455.723297 641.835999,454.451263 635.121704,450.192780   C620.347595,440.822388 604.482605,441.057190 588.265564,443.790100   C570.999207,446.699829 553.702515,450.043091 536.159485,448.053131   C501.277679,444.096436 467.218140,436.397095 434.731354,422.798431   C421.065643,417.078125 407.748352,410.523712 394.290680,404.309479   C391.173492,402.870087 387.976318,402.176605 387.582336,406.711731   C386.321838,421.221954 378.687286,432.631592 370.354675,443.789368   C352.993256,467.037201 334.898590,489.684784 314.171967,510.050995   C304.197906,519.851624 293.616699,529.034424 283.304932,538.490967   C282.572296,539.162842 281.812225,539.829712 280.636230,539.580505   C279.335297,537.535889 281.234772,536.575317 282.112488,535.357910   C289.607178,524.962891 298.017090,515.213074 304.175842,503.877563   C306.015045,500.492371 307.509949,497.054657 308.117767,493.171143   C309.156647,486.533875 306.959167,482.422882 300.628906,480.568420   C296.779663,479.440826 292.839813,478.988556 288.775696,479.705261   C281.488220,480.990387 280.724243,480.105194 283.059570,472.824402   C284.527527,468.247742 284.875122,463.720917 283.772827,459.059723   C282.040436,451.733917 277.029327,447.427490 270.436951,444.603027   C267.654297,443.410858 266.094238,445.334045 264.525665,447.099457   C250.368179,463.033112 235.645004,478.495361 223.553101,496.153351   C209.814575,516.215820 195.450760,535.872559 184.056046,557.449219   C166.763443,590.193848 154.920120,624.913269 145.895401,660.738342   C140.697968,681.370422 137.547806,702.078369 138.095947,723.442932   C138.745819,748.773560 142.975616,773.420715 150.668091,797.458435   C166.352554,846.469910 195.813141,885.351624 237.928101,914.753723   C262.902313,932.189087 290.953857,940.670715 321.021881,943.402649   C353.249115,946.330688 384.516418,942.692627 414.515503,930.112976   C442.022736,918.578247 466.168640,901.861572 488.367279,882.134338   C501.709076,870.277954 514.134827,857.491211 526.613586,844.756958   C528.667297,842.661133 530.849731,840.601379 532.513611,836.991150   C509.224640,832.249878 486.024628,828.967834 464.989410,817.978882   C466.545807,814.401794 468.992065,815.056335 470.985565,814.767822   C490.915375,811.883972 510.989014,809.750854 529.976685,802.332336   C547.552856,795.465210 564.424622,787.139343 580.773682,777.780029   C611.457886,760.214417 641.234985,741.261841 668.825439,719.044739   C674.794434,714.238220 680.759827,709.426758 686.775879,704.679565   C687.975586,703.732910 688.952454,702.001465 691.475769,703.031372   C689.205688,709.300903 685.371521,714.707886 682.286499,720.452271   C661.282410,759.562378 637.495972,796.949097 610.695007,832.310425   C589.970093,859.654968 568.695190,886.730469 543.327454,909.985962   C508.885468,941.560120 470.328979,967.055359 425.929962,982.495605   C391.908203,994.327026 356.483917,997.907959 320.595032,997.204102   C289.452759,996.593384 259.279938,991.229187 230.865753,977.974976   C198.143967,962.711548 168.808731,942.851990 146.582336,913.831787   C124.197365,884.604492 108.861481,851.869324 99.973763,816.227539   C93.841187,791.634521 90.657639,766.465210 89.261414,741.216797   C87.825935,715.258179 90.137527,689.384033 93.039070,663.504700   C98.024063,619.042542 114.737068,578.624390 133.625610,538.808655   C156.710266,490.147736 184.684998,444.491455 217.880875,402.068817   C239.639511,374.262390 264.740021,349.753876 291.847137,327.190552   C317.848267,305.547791 343.870087,283.915253 371.506531,264.390900   C401.765198,243.014053 434.360291,225.439880 466.747192,207.572586   C489.207825,195.181412 511.516907,182.503891 534.544067,171.168533   C559.231812,159.015717 584.840027,149.079285 610.488892,139.174164   C641.570923,127.170891 672.635315,115.160263 704.484375,105.317764   C716.086182,101.732391 727.491455,97.439453 739.543274,95.399750   C743.695618,94.696976 747.855103,94.460808 751.983704,94.973335   C760.824097,96.070778 764.848328,101.772789 762.920288,110.458809   C762.130920,114.014885 761.114929,117.591614 759.648376,120.914551   C751.842102,138.601486 743.229431,155.894470 733.592163,172.662277   C728.778809,181.037155 722.456604,187.985367 714.070557,192.967224   C704.067139,198.909897 695.690002,207.396606 684.747864,211.857071   C681.518921,213.173279 678.189941,214.400223 674.790710,215.118256   C639.582214,222.555679 611.115967,241.200073 586.802490,267.153259   C575.880676,278.811676 565.315918,290.878693 552.859741,301.024475   C551.833435,301.860413 550.788025,302.795135 550.095520,303.899658   C543.208374,314.885498 532.375305,319.869354 520.758301,324.224823   C497.486572,332.949921 473.858826,340.423798 449.756592,346.448730   C448.055542,346.873962 446.063660,346.918396 444.835571,348.692230   C445.270416,351.268585 447.626099,351.259369 449.364899,351.870239   C473.619171,360.391388 498.600098,366.032745 523.813904,370.839050   C548.342163,375.514648 572.887268,380.071198 597.545898,384.007843   C609.386108,385.898102 621.271912,387.420654 633.259155,387.846924   C651.068909,388.480194 668.853516,388.199524 686.665161,387.112946   C711.307190,385.609619 734.517334,379.118439 756.881714,369.015350   C768.266479,363.872284 779.707947,358.852905 791.165649,353.873932   C795.884338,351.823395 800.817871,351.319214 805.821594,352.822021   C810.390137,354.194122 811.555115,357.081116 809.117188,361.200409   C805.980957,366.499664 800.752747,369.378448 795.450439,371.709106   C778.340820,379.229797 762.469604,389.223511 745.458679,396.831848   C728.214355,404.544586 711.915466,413.624329 696.045837,423.872925   C679.847839,434.333557 662.265869,436.520386 644.386475,427.010071   C625.192322,416.800415 604.738647,415.395844 583.621887,418.288727   C567.994446,420.429596 552.367432,419.079132 536.769775,417.669189   C500.553223,414.395538 465.652435,405.304382 431.274933,393.838379   C418.606079,389.612976 405.490234,387.216522 392.274506,385.480347   C389.951660,385.175232 386.472931,383.754333 385.672729,387.714996   C384.915771,391.461548 388.783356,397.688324 391.761841,397.714081   C406.265472,397.839813 419.438721,403.188263 432.785034,407.882904   C468.480255,420.438904 505.108856,428.541504 542.917908,431.050476   C544.578125,431.160614 546.223938,431.487488 548.347534,431.737762  M695.474121,146.015411   C682.807495,138.384598 666.243225,140.878403 656.655090,152.232010   C652.836975,156.753159 649.965332,162.299545 652.005676,168.311813   C654.859558,176.721161 661.231140,182.117310 669.767090,184.412262   C674.249634,185.617447 678.907532,185.294418 683.887878,181.765961   C673.540283,178.619217 663.641541,175.455750 666.766907,162.068283   C668.377930,155.167831 672.609558,151.258652 679.194153,151.087021   C689.903625,150.807922 696.426331,155.809082 696.665710,167.870972   C702.678650,159.796204 702.152466,151.194885 695.474121,146.015411  M643.774963,185.864075   C632.558655,179.717682 636.059265,169.377914 637.077576,159.530182   C631.423950,160.994766 627.296570,163.742401 623.220337,166.547134   C619.905701,168.827881 619.058289,171.943878 620.471069,175.712830   C623.358337,183.415054 628.600647,189.308746 634.810730,194.464386   C636.019775,195.468155 637.427368,196.018448 638.974915,195.650299   C643.604614,194.548950 648.087463,193.099106 652.166443,189.537643   C649.257324,188.286697 646.839050,187.246826 643.774963,185.864075  M653.687439,201.030746   C652.229065,201.421310 650.330566,200.527939 649.343079,202.434082   C652.873840,205.559830 655.343811,207.016556 657.558350,206.408936   C671.814697,202.497314 683.924683,195.284164 692.715271,183.073685   C681.318420,191.962402 668.908691,198.615692 653.687439,201.030746  M705.372498,160.673370   C704.180664,165.592087 700.191772,169.405212 699.913940,174.768524   C704.849243,169.232147 709.905945,163.838547 712.927307,156.954987   C714.856567,152.559753 713.195312,148.599792 712.131287,144.579697   C711.683838,144.556717 711.236389,144.533752 710.788940,144.510773   C709.082703,149.657944 707.376465,154.805099 705.372498,160.673370  M685.752380,159.241119   C683.641724,155.018738 683.064514,154.829163 679.052063,157.145615   C680.910583,158.652344 682.868042,159.699142 685.752380,159.241119  z" fill="#000000" opacity="1.000000" stroke="none"/>
<path d=" M271.947876,38.076462   C268.326569,35.663387 263.919922,35.072758 261.395905,31.431391   C263.100372,29.961174 264.489471,30.875738 265.855560,31.269369   C330.898804,50.010929 391.095093,78.285522 443.722473,121.521057   C458.079315,133.315826 470.722076,146.771561 482.569031,160.996033   C488.927521,168.630615 487.585083,174.456833 478.595703,179.638733   C446.546234,198.113586 415.310852,217.925629 384.499695,238.348389   C339.083313,268.451996 294.935760,300.297943 255.649429,338.359070   C210.274307,382.319000 170.651627,430.738190 140.572327,486.564636   C123.818848,517.658691 111.879410,550.638916 102.248161,584.528931   C101.290962,587.897034 100.812302,591.711853 97.327606,594.048950   C94.359901,592.244934 94.346092,589.265076 93.826645,586.583862   C92.435097,579.401306 91.815269,572.062195 89.678337,565.032837   C85.994034,552.913513 78.896767,543.359558 67.977806,536.780518   C65.982300,535.578125 63.946423,534.431030 61.866879,533.381958   C53.221745,529.020630 52.958416,527.136475 60.608109,521.018616   C68.296547,514.869690 75.909439,508.663239 81.857857,500.715820   C87.103813,493.706909 85.617271,489.830505 77.116875,487.390228   C71.535568,485.787903 65.857475,486.605560 60.237198,486.151886   C58.333149,485.998199 56.196552,486.743286 54.549553,484.916565   C54.627819,482.273071 57.022839,482.052673 58.621479,481.198608   C66.905746,476.772644 74.564522,471.565918 80.967125,464.590485   C91.493553,453.122345 90.254211,443.648987 76.762321,435.819519   C72.468910,433.328033 67.682465,431.689697 63.136982,429.627106   C61.522964,428.894714 59.197739,428.553711 59.279770,426.307312   C59.358707,424.145630 61.626720,423.696381 63.281185,423.038971   C72.099388,419.535065 81.152992,416.609436 89.578972,412.150665   C98.166214,407.606537 106.389473,402.493378 112.752167,395.040771   C119.319595,387.348358 117.979820,381.499817 109.039398,376.551666   C102.236923,372.786774 94.692184,371.282745 87.296761,369.318756   C86.171570,369.019958 84.999481,368.882324 83.893394,368.530731   C82.362511,368.044128 80.270950,367.973999 80.100258,365.889801   C79.928886,363.797333 81.995193,363.304474 83.428490,362.667908   C95.755577,357.193207 108.513245,352.719879 120.610016,346.706909   C127.022202,343.519562 133.529297,340.492462 139.388229,336.313721   C142.669708,333.973267 146.409607,331.450470 146.001495,326.998779   C145.576553,322.363831 141.092926,321.048706 137.424896,319.534546   C130.923004,316.850647 123.956184,315.856201 117.158920,314.242584   C114.817772,313.686768 112.218971,313.491913 110.327438,311.146729   C111.951759,308.248108 114.786385,308.232086 117.256836,307.795319   C128.565643,305.795898 139.995575,304.334930 150.681091,299.752136   C154.980774,297.908112 159.188629,295.862488 162.725891,292.757294   C167.381714,288.670166 167.233841,284.878876 162.158783,281.324860   C154.805527,276.175476 146.156464,274.011505 137.797302,271.221527   C133.534424,269.798737 129.198868,268.591064 124.951378,267.126129   C123.303986,266.557953 121.301926,266.274017 120.523056,263.899078   C121.657242,261.241913 124.448822,261.356659 126.708984,260.803375   C142.871521,256.846771 159.288116,253.842026 174.791565,247.479904   C182.212219,244.434677 189.324158,240.806458 196.143173,236.613464   C198.553314,235.131485 201.153946,233.370544 200.752975,230.054657   C200.366776,226.860748 197.306747,226.252335 194.888733,225.310074   C185.963501,221.832031 176.402039,221.185516 167.142670,219.184280   C163.707916,218.441910 159.846603,218.504288 157.059784,215.238190   C159.590576,212.219650 163.135956,212.423752 166.249832,211.860855   C184.432861,208.573944 202.732635,205.844193 220.254578,199.630890   C224.035843,198.290024 227.775757,196.849045 231.143387,194.670334   C236.760376,191.036423 237.153442,187.027985 232.139267,182.638733   C226.541855,177.738937 219.761780,174.848648 212.867584,172.308487   C208.024338,170.523987 203.080002,169.014618 198.187302,167.363235   C196.313889,166.730942 194.367218,166.197479 193.080460,164.472794   C193.796356,161.755280 196.085327,162.066559 197.916870,161.764633   C213.359619,159.219070 229.072739,158.739578 244.453766,155.720673   C256.264771,153.402481 267.784882,150.232376 278.189789,143.888245   C286.421387,138.869247 287.262146,132.955688 280.331482,126.149704   C273.130737,119.078476 264.210388,114.420082 255.641525,109.280617   C251.882965,107.026291 247.503845,105.500259 245.015793,101.416214   C246.756149,99.034706 249.094681,99.902748 251.106445,99.876915   C265.931000,99.686501 280.715424,101.505455 295.552856,100.805527   C305.074097,100.356377 314.471069,99.190552 323.404907,95.622635   C331.287323,92.474640 332.685944,88.494934 328.090149,81.336182   C322.865540,73.197922 315.154114,67.492767 307.677338,61.663467   C296.495148,52.945198 284.598175,45.264000 271.947876,38.076462  z" fill="#000000" opacity="1.000000" stroke="none"/>
<path d=" M801.956421,225.944672   C794.320923,191.230316 790.320557,156.603928 794.053772,121.483185   C795.317993,109.589554 797.438721,97.746597 803.362671,86.983681   C810.487000,74.039795 825.905762,65.426712 838.816711,67.196854   C846.883484,68.302834 852.053101,72.716644 855.173706,80.104057   C859.385132,90.074013 861.362976,100.624687 861.847046,111.223877   C863.407593,145.392868 870.569275,178.419922 880.593323,210.961655   C882.205261,216.194809 883.317261,221.586136 884.550171,226.929764   C885.011719,228.930298 886.383362,231.591858 883.763977,232.700592   C881.366272,233.715469 879.994507,231.135468 878.682251,229.521179   C870.789429,219.811676 865.478760,208.912415 862.518982,196.665771   C857.671997,176.610809 855.442749,156.013748 849.712952,136.155701   C847.676880,129.099258 845.180481,122.229774 841.604797,115.784882   C839.974426,112.846252 838.046570,110.131378 835.478516,107.954323   C829.961670,103.277504 824.322693,104.314064 820.408875,110.408165   C812.579224,122.599556 810.025574,136.253983 809.535034,150.355225   C808.434387,181.996628 809.760925,213.595688 811.769165,245.172516   C811.903870,247.290863 812.031006,249.487656 809.499023,251.890823   C804.635193,243.780151 804.611145,234.651321 801.956421,225.944672  z" fill="#000000" opacity="1.000000" stroke="none"/>
<path d=" M535.566772,357.058319   C532.906616,352.913055 534.938477,349.855194 537.513123,347.095856   C541.517029,342.804779 546.347107,339.419678 551.252197,336.341583   C577.602173,319.805969 597.177246,297.199585 612.047913,270.112885   C616.927368,261.224915 622.486511,252.682739 628.142761,244.256241   C633.942078,235.616760 639.922852,236.003616 645.341675,244.805893   C648.718140,250.290543 649.233459,256.256683 647.674438,262.165863   C640.763977,288.358795 630.269409,312.840485 611.846252,333.219666   C605.907593,339.788788 598.749023,345.029602 591.324219,349.835785   C587.184814,352.515289 582.261108,353.350006 577.849976,351.873047   C565.185425,347.632599 553.606445,350.736176 542.086548,355.767120   C540.140564,356.616943 538.194885,357.779419 535.566772,357.058319  z" fill="#000000" opacity="1.000000" stroke="none"/>
<path d=" M697.684082,249.676910   C690.783386,264.733154 684.622192,279.520355 683.957458,296.151855   C683.616333,304.689331 686.869995,310.012329 694.025696,313.902222   C696.598755,315.300903 701.173767,315.807159 700.594055,319.665588   C700.049438,323.289856 695.676880,323.686829 692.608276,324.774323   C689.947937,325.717133 687.187134,326.493042 684.406494,326.960114   C670.540710,329.289185 659.530151,335.991272 651.667786,347.763672   C649.994019,350.269806 647.971497,352.547302 644.733643,353.099670   C638.704712,354.128235 634.299805,350.003143 634.937988,343.805695   C635.697083,336.434418 638.395325,329.544312 641.060181,322.766174   C650.564758,298.591553 660.393677,274.544067 670.174133,250.478699   C672.291382,245.269226 675.404724,240.529938 680.680115,238.229935   C688.971436,234.615005 694.616760,228.150879 700.259155,221.560135   C703.086548,218.257523 706.147461,215.196075 709.825256,212.830566   C711.094971,212.013885 712.519775,211.190674 713.967102,212.346603   C715.347656,213.449188 715.082031,214.966141 714.658203,216.481583   C713.253723,221.503662 710.752502,226.028976 708.282776,230.560196   C704.855530,236.848419 701.340027,243.088593 697.684082,249.676910  z" fill="#000000" opacity="1.000000" stroke="none"/>
<path d=" M704.930908,275.997253   C715.433716,256.446503 726.295166,237.572952 741.303772,221.481033   C743.290649,219.350754 744.743042,216.550827 748.020325,215.532806   C750.424438,218.175888 749.501160,221.376755 748.971558,224.010330   C745.505249,241.246597 748.253601,258.052795 751.833069,274.862610   C754.362000,286.738617 761.802551,294.868073 771.493286,301.398102   C773.082397,302.468903 775.599426,303.282318 775.029114,305.658508   C774.478088,307.954193 771.797791,307.763794 769.958252,308.070068   C749.434204,311.487030 728.867310,311.129120 708.417358,307.732361   C697.178467,305.865509 694.027710,299.317230 698.561523,288.840515   C700.408081,284.573517 702.679016,280.490143 704.930908,275.997253  z" fill="#000000" opacity="1.000000" stroke="none"/>
<path d=" M779.461365,186.507660   C786.919556,211.636200 796.162903,235.727646 804.444519,260.146545   C805.381958,262.910828 808.192505,266.967804 805.043091,268.738159   C801.633667,270.654755 799.338745,266.253876 797.419189,263.811096   C779.113464,240.514832 765.732300,214.580246 757.538574,186.149338   C752.343628,168.123688 755.168579,150.176239 760.360535,132.522049   C764.132874,119.694839 769.578430,107.559410 775.658997,95.690460   C777.267761,92.550209 779.322571,89.729843 782.006409,87.417297   C784.217529,85.512047 786.768250,84.925110 789.427246,86.236153   C792.034363,87.521584 793.331543,89.781662 793.257629,92.731445   C793.173157,96.099884 792.124268,99.269272 791.182434,102.458206   C785.952576,120.166641 781.268250,137.991058 777.615967,156.121277   C775.530701,166.472961 776.398926,176.256393 779.461365,186.507660  z" fill="#000000" opacity="1.000000" stroke="none"/>
<path d=" M863.999329,259.264465   C847.396057,258.804169 831.261658,258.711639 815.047607,256.638550   C815.843018,252.620392 818.164001,252.531387 819.952087,252.220810   C823.713135,251.567566 827.569641,250.785645 831.339905,250.978180   C850.642944,251.963959 869.000122,247.512589 887.203247,241.887451   C898.647339,238.350998 910.043701,234.588150 921.794189,232.188583   C933.706787,229.755890 945.602661,229.646133 957.251160,233.811264   C960.553406,234.992081 963.741577,236.420700 966.531555,238.602417   C971.856323,242.766357 973.553406,247.998993 971.697937,254.549377   C968.229492,266.794495 961.033325,276.797363 951.918884,285.255798   C934.093994,301.797607 914.677063,316.457825 895.649963,331.568024   C894.674255,332.342865 893.736267,333.519592 891.900635,333.003571   C891.129639,330.627594 893.159668,329.526672 894.411987,328.230865   C905.301331,316.963776 917.209229,306.787781 928.996338,296.505676   C939.212097,287.594360 945.130981,276.882965 945.594971,263.189453   C945.784851,257.584381 944.532166,255.335876 938.816101,254.075974   C928.209473,251.738144 917.645874,253.101929 907.064026,254.593826   C892.927063,256.586975 878.968994,260.291626 863.999329,259.264465  z" fill="#000000" opacity="1.000000" stroke="none"/>
<path d=" M829.105957,308.544403   C831.880127,310.722870 829.909668,311.504303 828.338196,312.011749   C826.455383,312.619690 824.462097,313.078613 822.492920,313.193024   C813.303345,313.727020 804.381897,315.248016 796.071106,319.479156   C794.472351,320.293152 792.470459,321.304108 791.031616,319.553528   C789.398010,317.565826 791.013367,315.793854 792.249084,314.257812   C798.455200,306.543304 806.761841,303.992706 816.235291,305.211426   C820.478455,305.757324 824.593018,307.303101 829.105957,308.544403  z" fill="#000000" opacity="1.000000" stroke="none"/>
</svg>
