<svg width="128" height="128" viewBox="0 0 128 128" xmlns="http://www.w3.org/2000/svg">
  <defs>
    <linearGradient id="g" x1="0" y1="0" x2="1" y2="1">
      <stop offset="0%" stop-color="#34a6ff"/>
      <stop offset="100%" stop-color="#006ab3"/>
    </linearGradient>
  </defs>
  <rect width="128" height="128" rx="24" fill="url(#g)"/>
  <path d="M24 70c22-8 36-28 40-34 7 10 13 18 24 24 8 4 12 10 12 16 0 11-10 20-24 20-8 0-16-3-20-8-4 5-12 8-20 8-14 0-24-9-24-20 0-4 2-8 6-12z" fill="white" opacity=".9"/>
  <circle cx="84" cy="68" r="6" fill="#072a40"/>
</svg>
