<svg xmlns="http://www.w3.org/2000/svg" viewBox="0 0 396 469"><path d="M219.00,453.50 218.00,453.50 217.00,453.50 216.00,453.50 215.00,453.50 214.00,453.50 213.00,453.50 212.00,453.50 211.00,453.50 210.00,453.50 209.00,453.50 208.00,453.50 207.00,453.50 206.00,453.50 205.00,453.50 204.50,453.00 204.00,452.50 203.00,452.50 202.00,452.50 201.00,452.50 200.00,452.50 199.00,452.50 198.00,452.50 197.00,452.50 196.00,452.50 195.00,452.50 194.00,452.50 193.50,452.00 193.00,451.50 192.00,451.50 191.00,451.50 190.00,451.50 189.00,451.50 188.00,451.50 187.00,451.50 186.50,451.00 186.00,450.50 185.00,450.50 184.00,450.50 183.00,450.50 182.00,450.50 181.50,450.00 181.00,449.50 180.00,449.50 179.00,449.50 178.00,449.50 177.50,449.00 177.00,448.50 176.00,448.50 175.00,448.50 174.00,448.50 173.50,448.00 173.00,447.50 172.00,447.50 171.00,447.50 170.50,447.00 170.00,446.50 169.00,446.50 168.00,446.50 167.50,446.00 167.00,445.50 166.00,445.50 165.00,445.50 164.50,445.00 164.00,444.50 163.00,444.50 162.00,444.50 161.50,444.00 161.00,443.50 160.00,443.50 159.50,443.00 159.00,442.50 158.00,442.50 157.00,442.50 156.50,442.00 156.00,441.50 155.00,441.50 154.50,441.00 154.00,440.50 153.00,440.50 152.50,440.00 152.00,439.50 151.00,439.50 150.50,439.00 150.00,438.50 149.00,438.50 148.50,438.00 148.00,437.50 147.00,437.50 146.50,437.00 146.00,436.50 145.00,436.50 144.50,436.00 144.00,435.50 143.00,435.50 142.50,435.00 142.00,434.50 141.00,434.50 140.50,434.00 140.00,433.50 139.00,433.50 138.50,433.00 138.00,432.50 137.50,432.00 137.00,431.50 136.00,431.50 135.50,431.00 135.00,430.50 134.50,430.00 134.00,429.50 133.00,429.50 132.50,429.00 132.00,428.50 131.50,428.00 131.00,427.50 130.00,427.50 129.50,427.00 129.00,426.50 128.50,426.00 128.00,425.50 127.50,425.00 127.00,424.50 126.00,424.50 125.50,424.00 125.00,423.50 124.50,423.00 124.00,422.50 123.50,422.00 123.00,421.50 122.00,421.50 121.50,421.00 121.00,420.50 120.50,420.00 120.00,419.50 119.50,419.00 119.00,418.50 118.50,418.00 118.00,417.50 117.50,417.00 117.00,416.50 116.50,416.00 116.00,415.50 115.50,415.00 115.00,414.50 114.50,414.00 114.00,413.50 113.00,413.50 112.50,413.00 112.00,412.50 111.50,412.00 111.00,411.50 110.50,411.00 110.00,410.50 109.50,410.00 109.00,409.50 108.50,409.00 108.50,408.00 108.00,407.50 107.50,407.00 107.00,406.50 106.50,406.00 106.00,405.50 105.50,405.00 105.00,404.50 104.50,404.00 104.00,403.50 103.50,403.00 103.00,402.50 102.50,402.00 102.00,401.50 101.50,401.00 101.00,400.50 100.50,400.00 100.00,399.50 99.50,399.00 99.00,398.50 98.50,398.00 98.50,397.00 98.00,396.50 97.50,396.00 97.00,395.50 96.50,395.00 96.00,394.50 95.50,394.00 95.00,393.50 94.50,393.00 94.00,392.50 93.50,392.00 93.50,391.00 93.00,390.50 92.50,390.00 92.00,389.50 91.50,389.00 91.00,388.50 90.50,388.00 90.50,387.00 90.00,386.50 89.50,386.00 89.00,385.50 88.50,385.00 88.00,384.50 87.50,384.00 87.50,383.00 87.00,382.50 86.50,382.00 86.00,381.50 85.50,381.00 85.50,380.00 85.00,379.50 84.50,379.00 84.00,378.50 83.50,378.00 83.50,377.00 83.00,376.50 82.50,376.00 82.00,375.50 81.50,375.00 81.00,374.50 80.50,374.00 80.50,373.00 80.00,372.50 79.50,372.00 79.00,371.50 78.50,371.00 78.00,370.50 77.50,370.00 77.00,369.50 76.50,369.00 76.00,368.50 75.00,368.50 74.50,368.00 74.00,367.50 73.50,367.00 73.00,366.50 72.00,366.50 71.50,366.00 71.00,365.50 70.50,365.00 70.00,364.50 69.00,364.50 68.50,364.00 68.00,363.50 67.00,363.50 66.00,363.50 65.50,363.00 65.00,362.50 64.00,362.50 63.00,362.50 62.50,362.00 62.00,361.50 61.00,361.50 60.00,361.50 59.00,361.50 58.00,361.50 57.00,361.50 56.00,361.50 55.00,361.50 54.50,361.00 54.00,360.50 53.00,360.50 52.50,361.00 52.00,361.50 51.00,361.50 50.00,361.50 49.00,361.50 48.00,361.50 47.00,361.50 46.00,361.50 45.00,361.50 44.00,361.50 43.50,362.00 43.00,362.50 42.00,362.50 41.00,362.50 40.00,362.50 39.50,363.00 39.00,363.50 38.00,363.50 37.00,363.50 36.50,364.00 36.00,364.50 35.00,364.50 34.00,364.50 33.50,365.00 33.00,365.50 32.00,365.50 31.00,365.50 30.50,366.00 30.00,366.50 29.00,366.50 28.50,367.00 28.00,367.50 27.00,367.50 26.50,368.00 26.00,368.50 25.00,368.50 24.50,369.00 24.00,369.50 23.50,370.00 23.00,370.50 22.00,370.50 21.50,371.00 21.00,371.50 20.00,371.50 19.50,372.00 19.00,372.50 18.50,373.00 18.00,373.50 17.00,373.50 16.50,374.00 16.00,374.50 15.50,375.00 15.00,375.50 14.50,376.00 14.00,376.50 13.50,377.00 13.00,377.50 12.00,377.50 11.50,378.00 11.00,378.50 10.50,379.00 10.00,379.50 9.50,380.00 9.00,380.50 8.50,381.00 8.00,381.50 7.50,381.00 7.50,380.00 7.50,379.00 7.50,378.00 8.00,377.50 8.50,377.00 8.50,376.00 8.50,375.00 8.50,374.00 8.50,373.00 8.50,372.00 8.50,371.00 8.50,370.00 8.50,369.00 9.00,368.50 9.50,368.00 9.50,367.00 9.50,366.00 9.50,365.00 9.50,364.00 9.50,363.00 10.00,362.50 10.50,362.00 10.50,361.00 10.50,360.00 10.50,359.00 10.50,358.00 10.50,357.00 11.00,356.50 11.50,356.00 11.50,355.00 11.50,354.00 11.50,353.00 11.50,352.00 11.50,351.00 12.00,350.50 12.50,350.00 12.50,349.00 12.50,348.00 12.50,347.00 13.00,346.50 13.50,346.00 13.50,345.00 13.50,344.00 13.50,343.00 14.00,342.50 14.50,342.00 14.50,341.00 14.50,340.00 14.50,339.00 15.00,338.50 15.50,338.00 15.50,337.00 15.50,336.00 15.50,335.00 16.00,334.50 16.50,334.00 16.50,333.00 16.50,332.00 16.50,331.00 17.00,330.50 17.50,330.00 17.50,329.00 17.50,328.00 18.00,327.50 18.50,327.00 18.50,326.00 18.50,325.00 19.00,324.50 19.50,324.00 19.50,323.00 19.50,322.00 20.00,321.50 20.50,321.00 20.50,320.00 20.50,319.00 21.00,318.50 21.50,318.00 21.50,317.00 21.50,316.00 22.00,315.50 22.50,315.00 22.50,314.00 22.50,313.00 23.00,312.50 23.50,312.00 23.50,311.00 24.00,310.50 24.50,310.00 24.50,309.00 24.50,308.00 25.00,307.50 25.50,307.00 25.50,306.00 26.00,305.50 26.50,305.00 26.50,304.00 26.50,303.00 27.00,302.50 27.50,302.00 27.50,301.00 28.00,300.50 28.50,300.00 28.50,299.00 28.50,298.00 29.00,297.50 29.50,297.00 29.50,296.00 30.00,295.50 30.50,295.00 30.50,294.00 31.00,293.50 31.50,293.00 31.50,292.00 32.00,291.50 32.50,291.00 32.50,290.00 33.00,289.50 33.50,289.00 33.50,288.00 34.00,287.50 34.50,287.00 34.50,286.00 35.00,285.50 35.50,285.00 35.50,284.00 36.00,283.50 36.50,283.00 36.50,282.00 37.00,281.50 37.50,281.00 37.50,280.00 38.00,279.50 38.50,279.00 38.50,278.00 39.00,277.50 39.50,277.00 39.50,276.00 40.00,275.50 40.50,275.00 40.50,274.00 41.00,273.50 41.50,273.00 42.00,272.50 42.50,272.00 42.50,271.00 43.00,270.50 43.50,270.00 43.50,269.00 44.00,268.50 44.50,268.00 44.50,267.00 45.00,266.50 45.50,266.00 46.00,265.50 46.50,265.00 46.50,264.00 47.00,263.50 47.50,263.00 47.50,262.00 48.00,261.50 48.50,261.00 49.00,260.50 49.50,260.00 49.50,259.00 50.00,258.50 50.50,258.00 50.50,257.00 51.00,256.50 51.50,256.00 52.00,255.50 52.50,255.00 52.50,254.00 53.00,253.50 53.50,253.00 54.00,252.50 54.50,252.00 54.50,251.00 55.00,250.50 55.50,250.00 55.50,249.00 56.00,248.50 56.50,248.00 57.00,247.50 57.50,247.00 57.50,246.00 58.00,245.50 58.50,245.00 59.00,244.50 59.50,244.00 59.50,243.00 60.00,242.50 60.50,242.00 61.00,241.50 61.50,241.00 61.50,240.00 62.00,239.50 62.50,239.00 63.00,238.50 63.50,238.00 63.50,237.00 64.00,236.50 64.50,236.00 65.00,235.50 65.50,235.00 66.00,234.50 66.50,234.00 66.50,233.00 67.00,232.50 67.50,232.00 68.00,231.50 68.50,231.00 68.50,230.00 69.00,229.50 69.50,229.00 70.00,228.50 70.50,228.00 71.00,227.50 71.50,227.00 71.50,226.00 72.00,225.50 72.50,225.00 73.00,224.50 73.50,224.00 73.50,223.00 74.00,222.50 74.50,222.00 75.00,221.50 75.50,221.00 76.00,220.50 76.50,220.00 76.50,219.00 77.00,218.50 77.50,218.00 78.00,217.50 78.50,217.00 79.00,216.50 79.50,216.00 79.50,215.00 80.00,214.50 80.50,214.00 81.00,213.50 81.50,213.00 82.00,212.50 82.50,212.00 82.50,211.00 83.00,210.50 83.50,210.00 84.00,209.50 84.50,209.00 85.00,208.50 85.50,208.00 85.50,207.00 86.00,206.50 86.50,206.00 87.00,205.50 87.50,205.00 88.00,204.50 88.50,204.00 88.50,203.00 89.00,202.50 89.50,202.00 90.00,201.50 90.50,201.00 91.00,200.50 91.50,200.00 91.50,199.00 92.00,198.50 92.50,198.00 93.00,197.50 93.50,197.00 94.00,196.50 94.50,196.00 95.00,195.50 95.50,195.00 95.50,194.00 96.00,193.50 96.50,193.00 97.00,192.50 97.50,192.00 98.00,191.50 98.50,191.00 98.50,190.00 99.00,189.50 99.50,189.00 100.00,188.50 100.50,188.00 101.00,187.50 101.50,187.00 102.00,186.50 102.50,186.00 102.50,185.00 103.00,184.50 103.50,184.00 104.00,183.50 104.50,183.00 105.00,182.50 105.50,182.00 106.00,181.50 106.50,181.00 106.50,180.00 107.00,179.50 107.50,179.00 108.00,178.50 108.50,178.00 109.00,177.50 109.50,177.00 109.50,176.00 110.00,175.50 110.50,175.00 111.00,174.50 111.50,174.00 112.00,173.50 112.50,173.00 113.00,172.50 113.50,172.00 113.50,171.00 114.00,170.50 114.50,170.00 115.00,169.50 115.50,169.00 116.00,168.50 116.50,168.00 116.50,167.00 117.00,166.50 117.50,166.00 118.00,165.50 118.50,165.00 119.00,164.50 119.50,164.00 120.00,163.50 120.50,163.00 120.50,162.00 121.00,161.50 121.50,161.00 122.00,160.50 122.50,160.00 123.00,159.50 123.50,159.00 123.50,158.00 124.00,157.50 124.50,157.00 125.00,156.50 125.50,156.00 126.00,155.50 126.50,155.00 126.50,154.00 127.00,153.50 127.50,153.00 128.00,152.50 128.50,152.00 129.00,151.50 129.50,151.00 130.00,150.50 130.50,150.00 130.50,149.00 131.00,148.50 131.50,148.00 132.00,147.50 132.50,147.00 133.00,146.50 133.50,146.00 133.50,145.00 134.00,144.50 134.50,144.00 135.00,143.50 135.50,143.00 136.00,142.50 136.50,142.00 136.50,141.00 137.00,140.50 137.50,140.00 138.00,139.50 138.50,139.00 139.00,138.50 139.50,138.00 139.50,137.00 140.00,136.50 140.50,136.00 141.00,135.50 141.50,135.00 142.00,134.50 142.50,134.00 142.50,133.00 143.00,132.50 143.50,132.00 144.00,131.50 144.50,131.00 145.00,130.50 145.50,130.00 145.50,129.00 146.00,128.50 146.50,128.00 147.00,127.50 147.50,127.00 147.50,126.00 148.00,125.50 148.50,125.00 149.00,124.50 149.50,124.00 150.00,123.50 150.50,123.00 150.50,122.00 151.00,121.50 151.50,121.00 152.00,120.50 152.50,120.00 153.00,119.50 153.50,119.00 153.50,118.00 154.00,117.50 154.50,117.00 155.00,116.50 155.50,116.00 155.50,115.00 156.00,114.50 156.50,114.00 157.00,113.50 157.50,113.00 157.50,112.00 158.00,111.50 158.50,111.00 159.00,110.50 159.50,110.00 160.00,109.50 160.50,109.00 160.50,108.00 161.00,107.50 161.50,107.00 162.00,106.50 162.50,106.00 162.50,105.00 163.00,104.50 163.50,104.00 164.00,103.50 164.50,103.00 164.50,102.00 165.00,101.50 165.50,101.00 166.00,100.50 166.50,100.00 166.50,99.00 167.00,98.50 167.50,98.00 168.00,97.50 168.50,97.00 168.50,96.00 169.00,95.50 169.50,95.00 170.00,94.50 170.50,94.00 170.50,93.00 171.00,92.50 171.50,92.00 172.00,91.50 172.50,91.00 172.50,90.00 173.00,89.50 173.50,89.00 174.00,88.50 174.50,88.00 174.50,87.00 175.00,86.50 175.50,86.00 176.00,85.50 176.50,85.00 176.50,84.00 177.00,83.50 177.50,83.00 178.00,82.50 178.50,82.00 178.50,81.00 179.00,80.50 179.50,80.00 180.00,79.50 180.50,79.00 180.50,78.00 181.00,77.50 181.50,77.00 181.50,76.00 182.00,75.50 182.50,75.00 183.00,74.50 183.50,74.00 183.50,73.00 184.00,72.50 184.50,72.00 185.00,71.50 185.50,71.00 185.50,70.00 186.00,69.50 186.50,69.00 186.50,68.00 187.00,67.50 187.50,67.00 188.00,66.50 188.50,66.00 188.50,65.00 189.00,64.50 189.50,64.00 189.50,63.00 190.00,62.50 190.50,62.00 191.00,61.50 191.50,61.00 191.50,60.00 192.00,59.50 192.50,59.00 192.50,58.00 193.00,57.50 193.50,57.00 193.50,56.00 194.00,55.50 194.50,55.00 195.00,54.50 195.50,54.00 195.50,53.00 196.00,52.50 196.50,52.00 196.50,51.00 197.00,50.50 197.50,50.00 197.50,49.00 198.00,48.50 198.50,48.00 199.00,47.50 199.50,47.00 199.50,46.00 200.00,45.50 200.50,45.00 200.50,44.00 201.00,43.50 201.50,43.00 201.50,42.00 202.00,41.50 202.50,41.00 202.50,40.00 203.00,39.50 203.50,39.00 204.00,38.50 204.50,38.00 204.50,37.00 205.00,36.50 205.50,36.00 205.50,35.00 206.00,34.50 206.50,34.00 206.50,33.00 207.00,32.50 207.50,32.00 207.50,31.00 208.00,30.50 208.50,30.00 208.50,29.00 209.00,28.50 209.50,28.00 209.50,27.00 210.00,26.50 210.50,26.00 210.50,25.00 211.00,24.50 211.50,24.00 211.50,23.00 212.00,22.50 212.50,22.00 212.50,21.00 213.00,20.50 213.50,20.00 213.50,19.00 214.00,18.50 214.50,18.00 214.50,17.00 215.00,16.50 215.50,16.00 215.50,15.00 216.00,14.50 216.50,14.00 216.50,13.00 217.00,12.50 217.50,12.00 217.50,11.00 218.00,10.50 218.50,11.00 218.50,12.00 218.50,13.00 218.50,14.00 218.50,15.00 218.00,15.50 217.50,16.00 217.50,17.00 217.50,18.00 217.50,19.00 217.50,20.00 217.00,20.50 216.50,21.00 216.50,22.00 216.50,23.00 216.50,24.00 216.00,24.50 215.50,25.00 215.50,26.00 215.50,27.00 215.50,28.00 215.00,28.50 214.50,29.00 214.50,30.00 214.50,31.00 214.50,32.00 214.00,32.50 213.50,33.00 213.50,34.00 213.50,35.00 213.00,35.50 212.50,36.00 212.50,37.00 212.50,38.00 212.00,38.50 211.50,39.00 211.50,40.00 211.50,41.00 211.00,41.50 210.50,42.00 210.50,43.00 210.50,44.00 210.00,44.50 209.50,45.00 209.50,46.00 209.50,47.00 209.00,47.50 208.50,48.00 208.50,49.00 208.50,50.00 208.00,50.50 207.50,51.00 207.50,52.00 207.50,53.00 207.00,53.50 206.50,54.00 206.50,55.00 206.00,55.50 205.50,56.00 205.50,57.00 205.50,58.00 205.00,58.50 204.50,59.00 204.50,60.00 204.00,60.50 203.50,61.00 203.50,62.00 203.50,63.00 203.00,63.50 202.50,64.00 202.50,65.00 202.00,65.50 201.50,66.00 201.50,67.00 201.50,68.00 201.00,68.50 200.50,69.00 200.50,70.00 200.00,70.50 199.50,71.00 199.50,72.00 199.00,72.50 198.50,73.00 198.50,74.00 198.50,75.00 198.00,75.50 197.50,76.00 197.50,77.00 197.00,77.50 196.50,78.00 196.50,79.00 196.00,79.50 195.50,80.00 195.50,81.00 195.00,81.50 194.50,82.00 194.50,83.00 194.50,84.00 194.00,84.50 193.50,85.00 193.50,86.00 193.00,86.50 192.50,87.00 192.50,88.00 192.00,88.50 191.50,89.00 191.50,90.00 191.00,90.50 190.50,91.00 190.50,92.00 190.00,92.50 189.50,93.00 189.50,94.00 189.00,94.50 188.50,95.00 188.50,96.00 188.00,96.50 187.50,97.00 187.50,98.00 187.00,98.50 186.50,99.00 186.50,100.00 186.00,100.50 185.50,101.00 185.50,102.00 185.00,102.50 184.50,103.00 184.50,104.00 184.00,104.50 183.50,105.00 183.50,106.00 183.00,106.50 182.50,107.00 182.50,108.00 182.00,108.50 181.50,109.00 181.50,110.00 181.00,110.50 180.50,111.00 180.50,112.00 180.00,112.50 179.50,113.00 179.50,114.00 179.00,114.50 178.50,115.00 178.50,116.00 178.00,116.50 177.50,117.00 177.50,118.00 177.00,118.50 176.50,119.00 176.50,120.00 176.00,120.50 175.50,121.00 175.50,122.00 175.00,122.50 174.50,123.00 174.50,124.00 174.00,124.50 173.50,125.00 173.50,126.00 173.00,126.50 172.50,127.00 172.50,128.00 172.00,128.50 171.50,129.00 171.50,130.00 171.00,130.50 170.50,131.00 170.50,132.00 170.00,132.50 169.50,133.00 169.50,134.00 169.00,134.50 168.50,135.00 168.50,136.00 168.00,136.50 167.50,137.00 167.00,137.50 166.50,138.00 166.50,139.00 166.00,139.50 165.50,140.00 165.50,141.00 165.00,141.50 164.50,142.00 164.50,143.00 164.00,143.50 163.50,144.00 163.50,145.00 163.00,145.50 162.50,146.00 162.50,147.00 162.00,147.50 161.50,148.00 161.50,149.00 161.00,149.50 160.50,150.00 160.50,151.00 160.00,151.50 159.50,152.00 159.50,153.00 159.00,153.50 158.50,154.00 158.50,155.00 158.00,155.50 157.50,156.00 157.50,157.00 157.00,157.50 156.50,158.00 156.50,159.00 156.00,159.50 155.50,160.00 155.50,161.00 155.00,161.50 154.50,162.00 154.50,163.00 154.00,163.50 153.50,164.00 153.50,165.00 153.00,165.50 152.50,166.00 152.50,167.00 152.00,167.50 151.50,168.00 151.50,169.00 151.00,169.50 150.50,170.00 150.50,171.00 150.00,171.50 149.50,172.00 149.50,173.00 149.00,173.50 148.50,174.00 148.50,175.00 148.00,175.50 147.50,176.00 147.50,177.00 147.00,177.50 146.50,178.00 146.50,179.00 146.00,179.50 145.50,180.00 145.50,181.00 145.00,181.50 144.50,182.00 144.50,183.00 144.00,183.50 143.50,184.00 143.50,185.00 143.00,185.50 142.50,186.00 142.50,187.00 142.00,187.50 141.50,188.00 141.50,189.00 141.00,189.50 140.50,190.00 140.50,191.00 140.00,191.50 139.50,192.00 139.50,193.00 139.00,193.50 138.50,194.00 138.50,195.00 138.00,195.50 137.50,196.00 137.50,197.00 137.50,198.00 137.00,198.50 136.50,199.00 136.50,200.00 136.00,200.50 135.50,201.00 135.50,202.00 135.00,202.50 134.50,203.00 134.50,204.00 134.00,204.50 133.50,205.00 133.50,206.00 133.00,206.50 132.50,207.00 132.50,208.00 132.50,209.00 132.00,209.50 131.50,210.00 131.50,211.00 131.00,211.50 130.50,212.00 130.50,213.00 130.00,213.50 129.50,214.00 129.50,215.00 129.50,216.00 129.00,216.50 128.50,217.00 128.50,218.00 128.00,218.50 127.50,219.00 127.50,220.00 127.50,221.00 127.00,221.50 126.50,222.00 126.50,223.00 126.00,223.50 125.50,224.00 125.50,225.00 125.50,226.00 125.00,226.50 124.50,227.00 124.50,228.00 124.00,228.50 123.50,229.00 123.50,230.00 123.50,231.00 123.00,231.50 122.50,232.00 122.50,233.00 122.50,234.00 122.00,234.50 121.50,235.00 121.50,236.00 121.50,237.00 121.00,237.50 120.50,238.00 120.50,239.00 120.00,239.50 119.50,240.00 119.50,241.00 119.50,242.00 119.00,242.50 118.50,243.00 118.50,244.00 118.50,245.00 118.00,245.50 117.50,246.00 117.50,247.00 117.50,248.00 117.50,249.00 117.00,249.50 116.50,250.00 116.50,251.00 116.50,252.00 116.00,252.50 115.50,253.00 115.50,254.00 115.50,255.00 115.50,256.00 115.00,256.50 114.50,257.00 114.50,258.00 114.50,259.00 114.00,259.50 113.50,260.00 113.50,261.00 113.50,262.00 113.50,263.00 113.00,263.50 112.50,264.00 112.50,265.00 112.50,266.00 112.50,267.00 112.50,268.00 112.00,268.50 111.50,269.00 111.50,270.00 111.50,271.00 111.50,272.00 111.50,273.00 111.00,273.50 110.50,274.00 110.50,275.00 110.50,276.00 110.50,277.00 110.50,278.00 110.00,278.50 109.50,279.00 109.50,280.00 109.50,281.00 109.50,282.00 109.50,283.00 109.50,284.00 109.50,285.00 109.00,285.50 108.50,286.00 108.50,287.00 108.50,288.00 108.50,289.00 108.50,290.00 108.50,291.00 108.50,292.00 108.50,293.00 108.50,294.00 108.50,295.00 108.50,296.00 108.50,297.00 108.50,298.00 108.50,299.00 108.00,299.50 107.50,300.00 107.50,301.00 107.50,302.00 107.50,303.00 107.50,304.00 107.50,305.00 107.50,306.00 108.00,306.50 108.50,307.00 108.50,308.00 108.50,309.00 108.50,310.00 108.50,311.00 108.50,312.00 108.50,313.00 108.50,314.00 108.50,315.00 108.50,316.00 108.50,317.00 108.50,318.00 108.50,319.00 109.00,319.50 109.50,320.00 109.50,321.00 109.50,322.00 109.50,323.00 109.50,324.00 109.50,325.00 110.00,325.50 110.50,326.00 110.50,327.00 110.50,328.00 110.50,329.00 111.00,329.50 111.50,330.00 111.50,331.00 111.50,332.00 111.50,333.00 112.00,333.50 112.50,334.00 112.50,335.00 112.50,336.00 112.50,337.00 113.00,337.50 113.50,338.00 113.50,339.00 113.50,340.00 114.00,340.50 114.50,341.00 114.50,342.00 114.50,343.00 115.00,343.50 115.50,344.00 115.50,345.00 116.00,345.50 116.50,346.00 116.50,347.00 117.00,347.50 117.50,348.00 117.50,349.00 117.50,350.00 118.00,350.50 118.50,351.00 118.50,352.00 119.00,352.50 119.50,353.00 119.50,354.00 120.00,354.50 120.50,355.00 120.50,356.00 121.00,356.50 121.50,357.00 122.00,357.50 122.50,358.00 122.50,359.00 123.00,359.50 123.50,360.00 123.50,361.00 124.00,361.50 124.50,362.00 125.00,362.50 125.50,363.00 125.50,364.00 126.00,364.50 126.50,365.00 127.00,365.50 127.50,366.00 127.50,367.00 128.00,367.50 128.50,368.00 129.00,368.50 129.50,369.00 130.00,369.50 130.50,370.00 130.50,371.00 131.00,371.50 131.50,372.00 132.00,372.50 132.50,373.00 133.00,373.50 133.50,374.00 134.00,374.50 134.50,375.00 135.00,375.50 135.50,376.00 136.00,376.50 136.50,377.00 136.50,378.00 137.00,378.50 137.50,379.00 138.00,379.50 138.50,380.00 139.00,380.50 139.50,381.00 140.00,381.50 140.50,382.00 141.00,382.50 141.50,383.00 142.00,383.50 142.50,384.00 143.00,384.50 143.50,385.00 144.00,385.50 144.50,386.00 145.00,386.50 146.00,386.50 146.50,387.00 147.00,387.50 147.50,388.00 148.00,388.50 148.50,389.00 149.00,389.50 149.50,390.00 150.00,390.50 150.50,391.00 151.00,391.50 152.00,391.50 152.50,392.00 153.00,392.50 153.50,393.00 154.00,393.50 155.00,393.50 155.50,394.00 156.00,394.50 156.50,395.00 157.00,395.50 158.00,395.50 158.50,396.00 159.00,396.50 159.50,397.00 160.00,397.50 161.00,397.50 161.50,398.00 162.00,398.50 163.00,398.50 163.50,399.00 164.00,399.50 165.00,399.50 165.50,400.00 166.00,400.50 167.00,400.50 167.50,401.00 168.00,401.50 169.00,401.50 169.50,402.00 170.00,402.50 171.00,402.50 171.50,403.00 172.00,403.50 173.00,403.50 173.50,404.00 174.00,404.50 175.00,404.50 176.00,404.50 176.50,405.00 177.00,405.50 178.00,405.50 178.50,406.00 179.00,406.50 180.00,406.50 181.00,406.50 181.50,407.00 182.00,407.50 183.00,407.50 184.00,407.50 185.00,407.50 185.50,408.00 186.00,408.50 187.00,408.50 188.00,408.50 189.00,408.50 189.50,409.00 190.00,409.50 191.00,409.50 192.00,409.50 193.00,409.50 194.00,409.50 194.50,410.00 195.00,410.50 196.00,410.50 197.00,410.50 198.00,410.50 199.00,410.50 200.00,410.50 201.00,410.50 201.50,411.00 202.00,411.50 203.00,411.50 204.00,411.50 205.00,411.50 206.00,411.50 207.00,411.50 208.00,411.50 209.00,411.50 210.00,411.50 211.00,411.50 212.00,411.50 213.00,411.50 214.00,411.50 215.00,411.50 216.00,411.50 217.00,411.50 218.00,411.50 219.00,411.50 220.00,411.50 221.00,411.50 222.00,411.50 222.50,411.00 223.00,410.50 224.00,410.50 225.00,410.50 226.00,410.50 227.00,410.50 228.00,410.50 229.00,410.50 229.50,410.00 230.00,409.50 231.00,409.50 232.00,409.50 233.00,409.50 234.00,409.50 234.50,409.00 235.00,408.50 236.00,408.50 237.00,408.50 238.00,408.50 238.50,408.00 239.00,407.50 240.00,407.50 241.00,407.50 242.00,407.50 242.50,407.00 243.00,406.50 244.00,406.50 245.00,406.50 245.50,406.00 246.00,405.50 247.00,405.50 247.50,405.00 248.00,404.50 249.00,404.50 250.00,404.50 250.50,404.00 251.00,403.50 252.00,403.50 252.50,403.00 253.00,402.50 254.00,402.50 254.50,402.00 255.00,401.50 256.00,401.50 257.00,401.50 257.50,401.00 258.00,400.50 258.50,400.00 259.00,399.50 260.00,399.50 260.50,399.00 261.00,398.50 262.00,398.50 262.50,398.00 263.00,397.50 264.00,397.50 264.50,397.00 265.00,396.50 265.50,396.00 266.00,395.50 267.00,395.50 267.50,395.00 268.00,394.50 268.50,394.00 269.00,393.50 270.00,393.50 270.50,393.00 271.00,392.50 271.50,392.00 272.00,391.50 273.00,391.50 273.50,391.00 274.00,390.50 274.50,390.00 275.00,389.50 275.50,389.00 276.00,388.50 276.50,388.00 277.00,387.50 277.50,387.00 278.00,386.50 279.00,386.50 279.50,386.00 280.00,385.50 280.50,385.00 281.00,384.50 281.50,384.00 282.00,383.50 282.50,383.00 283.00,382.50 283.50,382.00 284.00,381.50 284.50,381.00 285.00,380.50 285.50,380.00 286.00,379.50 286.50,379.00 287.00,378.50 287.50,378.00 287.50,377.00 288.00,376.50 288.50,376.00 289.00,375.50 289.50,375.00 290.00,374.50 290.50,374.00 291.00,373.50 291.50,373.00 292.00,372.50 292.50,372.00 292.50,371.00 293.00,370.50 293.50,370.00 294.00,369.50 294.50,369.00 294.50,368.00 295.00,367.50 295.50,367.00 296.00,366.50 296.50,366.00 296.50,365.00 297.00,364.50 297.50,364.00 298.00,363.50 298.50,363.00 298.50,362.00 299.00,361.50 299.50,361.00 299.50,360.00 300.00,359.50 300.50,359.00 300.50,358.00 301.00,357.50 301.50,357.00 302.00,356.50 302.50,356.00 302.50,355.00 302.50,354.00 303.00,353.50 303.50,353.00 303.50,352.00 304.00,351.50 304.50,351.00 304.50,350.00 305.00,349.50 305.50,349.00 305.50,348.00 305.50,347.00 306.00,346.50 306.50,346.00 306.50,345.00 307.00,344.50 307.50,344.00 307.50,343.00 307.50,342.00 308.00,341.50 308.50,341.00 308.50,340.00 308.50,339.00 308.50,338.00 309.00,337.50 309.50,337.00 309.50,336.00 309.50,335.00 310.00,334.50 310.50,334.00 310.50,333.00 310.50,332.00 310.50,331.00 310.50,330.00 310.50,329.00 311.00,328.50 311.50,328.00 311.50,327.00 311.50,326.00 311.50,325.00 311.50,324.00 311.50,323.00 312.00,322.50 312.50,322.00 312.50,321.00 312.50,320.00 312.50,319.00 312.50,318.00 312.50,317.00 312.50,316.00 312.50,315.00 312.50,314.00 312.50,313.00 312.50,312.00 312.50,311.00 312.50,310.00 312.50,309.00 312.50,308.00 312.50,307.00 312.50,306.00 312.00,305.50 311.50,305.00 311.50,304.00 311.50,303.00 311.00,302.50 310.50,302.00 310.50,301.00 310.00,300.50 309.50,300.00 309.00,299.50 308.50,299.00 308.00,298.50 307.50,298.00 307.00,297.50 306.50,297.00 306.00,296.50 305.00,296.50 304.50,296.00 304.00,295.50 303.00,295.50 302.50,295.00 302.00,294.50 301.00,294.50 300.00,294.50 299.00,294.50 298.00,294.50 297.50,294.00 297.00,293.50 296.00,293.50 295.00,293.50 294.00,293.50 293.00,293.50 292.00,293.50 291.00,293.50 290.50,294.00 290.00,294.50 289.00,294.50 288.00,294.50 287.00,294.50 286.00,294.50 285.00,294.50 284.00,294.50 283.50,295.00 283.00,295.50 282.00,295.50 281.00,295.50 280.00,295.50 279.00,295.50 278.50,296.00 278.00,296.50 277.00,296.50 276.00,296.50 275.00,296.50 274.50,297.00 274.00,297.50 273.00,297.50 272.00,297.50 271.50,298.00 271.00,298.50 270.00,298.50 269.00,298.50 268.50,299.00 268.00,299.50 267.00,299.50 266.00,299.50 265.50,300.00 265.00,300.50 264.00,300.50 263.00,300.50 262.50,301.00 262.00,301.50 261.00,301.50 260.50,302.00 260.00,302.50 259.00,302.50 258.00,302.50 257.50,303.00 257.00,303.50 256.00,303.50 255.50,304.00 255.00,304.50 254.00,304.50 253.50,305.00 253.00,305.50 252.00,305.50 251.50,306.00 251.00,306.50 250.00,306.50 249.00,306.50 248.50,307.00 248.00,307.50 247.00,307.50 246.50,308.00 246.00,308.50 245.00,308.50 244.50,309.00 244.00,309.50 243.00,309.50 242.50,310.00 242.00,310.50 241.50,311.00 241.00,311.50 240.00,311.50 239.50,312.00 239.00,312.50 238.50,312.00 238.50,311.00 239.00,310.50 240.00,310.50 240.50,310.00 241.00,309.50 241.50,309.00 242.00,308.50 242.50,308.00 243.00,307.50 243.50,307.00 244.00,306.50 244.50,306.00 245.00,305.50 245.50,305.00 246.00,304.50 246.50,304.00 247.00,303.50 247.50,303.00 248.00,302.50 248.50,302.00 249.00,301.50 249.50,301.00 250.00,300.50 250.50,300.00 251.00,299.50 251.50,299.00 251.50,298.00 252.00,297.50 252.50,297.00 253.00,296.50 253.50,296.00 254.00,295.50 254.50,295.00 255.00,294.50 255.50,294.00 256.00,293.50 256.50,293.00 256.50,292.00 257.00,291.50 257.50,291.00 258.00,290.50 258.50,290.00 259.00,289.50 259.50,289.00 260.00,288.50 260.50,288.00 260.50,287.00 261.00,286.50 261.50,286.00 262.00,285.50 262.50,285.00 262.50,284.00 263.00,283.50 263.50,283.00 264.00,282.50 264.50,282.00 265.00,281.50 265.50,281.00 265.50,280.00 266.00,279.50 266.50,279.00 267.00,278.50 267.50,278.00 267.50,277.00 268.00,276.50 268.50,276.00 269.00,275.50 269.50,275.00 269.50,274.00 270.00,273.50 270.50,273.00 270.50,272.00 271.00,271.50 271.50,271.00 272.00,270.50 272.50,270.00 272.50,269.00 273.00,268.50 273.50,268.00 273.50,267.00 274.00,266.50 274.50,266.00 274.50,265.00 275.00,264.50 275.50,264.00 275.50,263.00 276.00,262.50 276.50,262.00 276.50,261.00 277.00,260.50 277.50,260.00 277.50,259.00 278.00,258.50 278.50,258.00 278.50,257.00 279.00,256.50 279.50,256.00 279.50,255.00 280.00,254.50 280.50,254.00 280.50,253.00 281.00,252.50 281.50,252.00 281.50,251.00 282.00,250.50 282.50,250.00 282.50,249.00 282.50,248.00 283.00,247.50 283.50,247.00 283.50,246.00 284.00,245.50 284.50,245.00 284.50,244.00 284.50,243.00 285.00,242.50 285.50,242.00 285.50,241.00 285.50,240.00 286.00,239.50 286.50,239.00 286.50,238.00 286.50,237.00 287.00,236.50 287.50,236.00 287.50,235.00 287.50,234.00 288.00,233.50 288.50,233.00 288.50,232.00 288.50,231.00 288.50,230.00 289.00,229.50 289.50,229.00 289.50,228.00 289.50,227.00 289.50,226.00 289.50,225.00 290.00,224.50 290.50,224.00 290.50,223.00 290.50,222.00 290.50,221.00 290.50,220.00 291.00,219.50 291.50,219.00 291.50,218.00 291.50,217.00 291.50,216.00 291.50,215.00 291.50,214.00 291.50,213.00 291.50,212.00 292.00,211.50 292.50,211.00 292.50,210.00 292.50,209.00 292.50,208.00 292.50,207.00 292.50,206.00 292.50,205.00 292.50,204.00 292.50,203.00 292.50,202.00 292.50,201.00 292.50,200.00 292.50,199.00 292.50,198.00 292.50,197.00 292.50,196.00 292.00,195.50 291.50,195.00 291.50,194.00 291.50,193.00 291.50,192.00 291.50,191.00 291.50,190.00 291.50,189.00 291.00,188.50 290.50,188.00 290.50,187.00 290.50,186.00 290.50,185.00 290.50,184.00 290.00,183.50 289.50,183.00 289.50,182.00 289.50,181.00 289.50,180.00 289.00,179.50 288.50,179.00 289.00,178.50 290.00,178.50 290.50,179.00 291.00,179.50 291.50,180.00 292.00,180.50 292.50,181.00 293.00,181.50 293.50,182.00 294.00,182.50 295.00,182.50 295.50,183.00 296.00,183.50 296.50,184.00 297.00,184.50 297.50,185.00 298.00,185.50 298.50,186.00 299.00,186.50 299.50,187.00 300.00,187.50 300.50,188.00 301.00,188.50 302.00,188.50 302.50,189.00 303.00,189.50 303.50,190.00 304.00,190.50 304.50,191.00 305.00,191.50 305.50,192.00 306.00,192.50 306.50,193.00 307.00,193.50 307.50,194.00 308.00,194.50 308.50,195.00 309.00,195.50 309.50,196.00 309.50,197.00 310.00,197.50 310.50,198.00 311.00,198.50 311.50,199.00 312.00,199.50 312.50,200.00 313.00,200.50 313.50,201.00 314.00,201.50 314.50,202.00 315.00,202.50 315.50,203.00 316.00,203.50 316.50,204.00 316.50,205.00 317.00,205.50 317.50,206.00 318.00,206.50 318.50,207.00 319.00,207.50 319.50,208.00 319.50,209.00 320.00,209.50 320.50,210.00 321.00,210.50 321.50,211.00 322.00,211.50 322.50,212.00 322.50,213.00 323.00,213.50 323.50,214.00 324.00,214.50 324.50,215.00 324.50,216.00 325.00,216.50 325.50,217.00 326.00,217.50 326.50,218.00 326.50,219.00 327.00,219.50 327.50,220.00 328.00,220.50 328.50,221.00 328.50,222.00 329.00,222.50 329.50,223.00 329.50,224.00 330.00,224.50 330.50,225.00 331.00,225.50 331.50,226.00 331.50,227.00 332.00,227.50 332.50,228.00 332.50,229.00 333.00,229.50 333.50,230.00 333.50,231.00 334.00,231.50 334.50,232.00 334.50,233.00 335.00,233.50 335.50,234.00 335.50,235.00 336.00,235.50 336.50,236.00 336.50,237.00 337.00,237.50 337.50,238.00 337.50,239.00 338.00,239.50 338.50,240.00 338.50,241.00 339.00,241.50 339.50,242.00 339.50,243.00 339.50,244.00 340.00,244.50 340.50,245.00 340.50,246.00 341.00,246.50 341.50,247.00 341.50,248.00 342.00,248.50 342.50,249.00 342.50,250.00 342.50,251.00 343.00,251.50 343.50,252.00 343.50,253.00 343.50,254.00 344.00,254.50 344.50,255.00 344.50,256.00 344.50,257.00 345.00,257.50 345.50,258.00 345.50,259.00 345.50,260.00 346.00,260.50 346.50,261.00 346.50,262.00 346.50,263.00 346.50,264.00 347.00,264.50 347.50,265.00 347.50,266.00 347.50,267.00 348.00,267.50 348.50,268.00 348.50,269.00 348.50,270.00 348.50,271.00 349.00,271.50 349.50,272.00 349.50,273.00 349.50,274.00 349.50,275.00 349.50,276.00 350.00,276.50 350.50,277.00 350.50,278.00 350.50,279.00 350.50,280.00 350.50,281.00 351.00,281.50 351.50,282.00 351.50,283.00 351.50,284.00 351.50,285.00 351.50,286.00 351.50,287.00 351.50,288.00 352.00,288.50 352.50,289.00 352.50,290.00 352.50,291.00 352.50,292.00 352.50,293.00 352.50,294.00 352.50,295.00 352.50,296.00 352.50,297.00 352.50,298.00 353.00,298.50 353.50,299.00 353.50,300.00 353.50,301.00 353.50,302.00 353.50,303.00 353.50,304.00 353.50,305.00 353.50,306.00 353.50,307.00 353.50,308.00 353.50,309.00 353.50,310.00 353.50,311.00 353.50,312.00 353.50,313.00 353.50,314.00 353.50,315.00 353.50,316.00 353.50,317.00 353.50,318.00 353.50,319.00 353.50,320.00 353.00,320.50 352.50,321.00 352.50,322.00 352.50,323.00 352.50,324.00 352.50,325.00 352.50,326.00 352.50,327.00 352.50,328.00 352.50,329.00 352.50,330.00 352.00,330.50 351.50,331.00 351.50,332.00 351.50,333.00 351.50,334.00 351.50,335.00 351.50,336.00 351.00,336.50 350.50,337.00 350.50,338.00 350.50,339.00 350.50,340.00 350.50,341.00 350.00,341.50 349.50,342.00 349.50,343.00 349.50,344.00 349.50,345.00 349.50,346.00 349.00,346.50 348.50,347.00 348.50,348.00 348.50,349.00 348.50,350.00 348.00,350.50 347.50,351.00 347.50,352.00 347.50,353.00 347.00,353.50 346.50,354.00 346.50,355.00 346.50,356.00 346.00,356.50 345.50,357.00 345.50,358.00 345.50,359.00 345.00,359.50 344.50,360.00 344.50,361.00 344.50,362.00 344.00,362.50 343.50,363.00 343.50,364.00 343.50,365.00 343.00,365.50 342.50,366.00 342.50,367.00 342.00,367.50 341.50,368.00 341.50,369.00 341.00,369.50 340.50,370.00 340.50,371.00 340.50,372.00 340.00,372.50 339.50,373.00 339.50,374.00 339.00,374.50 338.50,375.00 338.50,376.00 338.00,376.50 337.50,377.00 337.50,378.00 337.00,378.50 336.50,379.00 336.50,380.00 336.00,380.50 335.50,381.00 335.00,381.50 334.50,382.00 334.50,383.00 334.00,383.50 333.50,384.00 333.50,385.00 333.00,385.50 332.50,386.00 332.50,387.00 332.00,387.50 331.50,388.00 331.00,388.50 330.50,389.00 330.50,390.00 330.00,390.50 329.50,391.00 329.00,391.50 328.50,392.00 328.50,393.00 328.00,393.50 327.50,394.00 327.00,394.50 326.50,395.00 326.00,395.50 325.50,396.00 325.50,397.00 325.00,397.50 324.50,398.00 324.00,398.50 323.50,399.00 323.00,399.50 322.50,400.00 322.50,401.00 322.00,401.50 321.50,402.00 321.00,402.50 320.50,403.00 320.00,403.50 319.50,404.00 319.00,404.50 318.50,405.00 318.00,405.50 317.50,406.00 317.00,406.50 316.50,407.00 316.00,407.50 315.50,408.00 315.50,409.00 315.00,409.50 314.50,410.00 314.00,410.50 313.50,411.00 313.00,411.50 312.50,412.00 312.00,412.50 311.50,413.00 311.00,413.50 310.50,414.00 310.00,414.50 309.00,414.50 308.50,415.00 308.00,415.50 307.50,416.00 307.00,416.50 306.50,417.00 306.00,417.50 305.50,418.00 305.00,418.50 304.50,419.00 304.00,419.50 303.50,420.00 303.00,420.50 302.50,421.00 302.00,421.50 301.00,421.50 300.50,422.00 300.00,422.50 299.50,423.00 299.00,423.50 298.50,424.00 298.00,424.50 297.50,425.00 297.00,425.50 296.00,425.50 295.50,426.00 295.00,426.50 294.50,427.00 294.00,427.50 293.00,427.50 292.50,428.00 292.00,428.50 291.50,429.00 291.00,429.50 290.00,429.50 289.50,430.00 289.00,430.50 288.50,431.00 288.00,431.50 287.00,431.50 286.50,432.00 286.00,432.50 285.50,433.00 285.00,433.50 284.00,433.50 283.50,434.00 283.00,434.50 282.00,434.50 281.50,435.00 281.00,435.50 280.00,435.50 279.50,436.00 279.00,436.50 278.00,436.50 277.50,437.00 277.00,437.50 276.00,437.50 275.50,438.00 275.00,438.50 274.50,439.00 274.00,439.50 273.00,439.50 272.00,439.50 271.50,440.00 271.00,440.50 270.00,440.50 269.50,441.00 269.00,441.50 268.00,441.50 267.50,442.00 267.00,442.50 266.00,442.50 265.00,442.50 264.50,443.00 264.00,443.50 263.00,443.50 262.50,444.00 262.00,444.50 261.00,444.50 260.00,444.50 259.50,445.00 259.00,445.50 258.00,445.50 257.00,445.50 256.50,446.00 256.00,446.50 255.00,446.50 254.00,446.50 253.50,447.00 253.00,447.50 252.00,447.50 251.00,447.50 250.50,448.00 250.00,448.50 249.00,448.50 248.00,448.50 247.00,448.50 246.50,449.00 246.00,449.50 245.00,449.50 244.00,449.50 243.00,449.50 242.50,450.00 242.00,450.50 241.00,450.50 240.00,450.50 239.00,450.50 238.00,450.50 237.50,451.00 237.00,451.50 236.00,451.50 235.00,451.50 234.00,451.50 233.00,451.50 232.00,451.50 231.00,451.50 230.50,452.00 230.00,452.50 229.00,452.50 228.00,452.50 227.00,452.50 226.00,452.50 225.00,452.50 224.00,452.50 223.00,452.50 222.00,452.50 221.00,452.50 220.00,452.50 219.50,453.00 219.00,453.50Z" fill="#001c36"/></svg>
